# Blender 4.4.1
# www.blender.org
o Icosphere
v 0.000000 -1.000000 0.000000
v 0.723607 -0.447220 0.525725
v -0.276388 -0.447220 0.850649
v -0.894426 -0.447216 0.000000
v -0.276388 -0.447220 -0.850649
v 0.723607 -0.447220 -0.525725
v 0.276388 0.447220 0.850649
v -0.723607 0.447220 0.525725
v -0.723607 0.447220 -0.525725
v 0.276388 0.447220 -0.850649
v 0.894426 0.447216 0.000000
v 0.000000 1.000000 0.000000
v -0.232822 -0.657519 0.716563
v -0.162456 -0.850654 0.499995
v -0.077607 -0.967950 0.238853
v 0.203181 -0.967950 0.147618
v 0.425323 -0.850654 0.309011
v 0.609547 -0.657519 0.442856
v 0.531941 -0.502302 0.681712
v 0.262869 -0.525738 0.809012
v -0.029639 -0.502302 0.864184
v 0.812729 -0.502301 -0.295238
v 0.850648 -0.525736 0.000000
v 0.812729 -0.502301 0.295238
v 0.203181 -0.967950 -0.147618
v 0.425323 -0.850654 -0.309011
v 0.609547 -0.657519 -0.442856
v -0.753442 -0.657515 0.000000
v -0.525730 -0.850652 0.000000
v -0.251147 -0.967949 0.000000
v -0.483971 -0.502302 0.716565
v -0.688189 -0.525736 0.499997
v -0.831051 -0.502299 0.238853
v -0.232822 -0.657519 -0.716563
v -0.162456 -0.850654 -0.499995
v -0.077607 -0.967950 -0.238853
v -0.831051 -0.502299 -0.238853
v -0.688189 -0.525736 -0.499997
v -0.483971 -0.502302 -0.716565
v -0.029639 -0.502302 -0.864184
v 0.262869 -0.525738 -0.809012
v 0.531941 -0.502302 -0.681712
v 0.956626 0.251149 0.147618
v 0.951058 -0.000000 0.309013
v 0.860698 -0.251151 0.442858
v 0.860698 -0.251151 -0.442858
v 0.951058 0.000000 -0.309013
v 0.956626 0.251149 -0.147618
v 0.155215 0.251152 0.955422
v 0.000000 -0.000000 1.000000
v -0.155215 -0.251152 0.955422
v 0.687159 -0.251152 0.681715
v 0.587786 0.000000 0.809017
v 0.436007 0.251152 0.864188
v -0.860698 0.251151 0.442858
v -0.951058 -0.000000 0.309013
v -0.956626 -0.251149 0.147618
v -0.436007 -0.251152 0.864188
v -0.587786 0.000000 0.809017
v -0.687159 0.251152 0.681715
v -0.687159 0.251152 -0.681715
v -0.587786 -0.000000 -0.809017
v -0.436007 -0.251152 -0.864188
v -0.956626 -0.251149 -0.147618
v -0.951058 0.000000 -0.309013
v -0.860698 0.251151 -0.442858
v 0.436007 0.251152 -0.864188
v 0.587786 -0.000000 -0.809017
v 0.687159 -0.251152 -0.681715
v -0.155215 -0.251152 -0.955422
v 0.000000 0.000000 -1.000000
v 0.155215 0.251152 -0.955422
v 0.831051 0.502299 0.238853
v 0.688189 0.525736 0.499997
v 0.483971 0.502302 0.716565
v 0.029639 0.502302 0.864184
v -0.262869 0.525738 0.809012
v -0.531941 0.502302 0.681712
v -0.812729 0.502301 0.295238
v -0.850648 0.525736 0.000000
v -0.812729 0.502301 -0.295238
v -0.531941 0.502302 -0.681712
v -0.262869 0.525738 -0.809012
v 0.029639 0.502302 -0.864184
v 0.483971 0.502302 -0.716565
v 0.688189 0.525736 -0.499997
v 0.831051 0.502299 -0.238853
v 0.077607 0.967950 0.238853
v 0.162456 0.850654 0.499995
v 0.232822 0.657519 0.716563
v 0.753442 0.657515 0.000000
v 0.525730 0.850652 0.000000
v 0.251147 0.967949 0.000000
v -0.203181 0.967950 0.147618
v -0.425323 0.850654 0.309011
v -0.609547 0.657519 0.442856
v -0.203181 0.967950 -0.147618
v -0.425323 0.850654 -0.309011
v -0.609547 0.657519 -0.442856
v 0.077607 0.967950 -0.238853
v 0.162456 0.850654 -0.499995
v 0.232822 0.657519 -0.716563
v 0.361800 0.894429 -0.262863
v 0.638194 0.723610 -0.262864
v 0.447209 0.723612 -0.525728
v -0.138197 0.894430 -0.425319
v -0.052790 0.723612 -0.688185
v -0.361804 0.723612 -0.587778
v -0.447210 0.894429 0.000000
v -0.670817 0.723611 -0.162457
v -0.670817 0.723611 0.162457
v -0.138197 0.894430 0.425319
v -0.361804 0.723612 0.587778
v -0.052790 0.723612 0.688185
v 0.361800 0.894429 0.262863
v 0.447209 0.723612 0.525728
v 0.638194 0.723610 0.262864
v 0.861804 0.276396 -0.425322
v 0.809019 0.000000 -0.587782
v 0.670821 0.276397 -0.688189
v -0.138199 0.276397 -0.951055
v -0.309016 -0.000000 -0.951057
v -0.447215 0.276397 -0.850649
v -0.947213 0.276396 -0.162458
v -1.000000 0.000001 0.000000
v -0.947213 0.276397 0.162458
v -0.447216 0.276397 0.850648
v -0.309017 -0.000001 0.951056
v -0.138199 0.276397 0.951055
v 0.670820 0.276396 0.688190
v 0.809019 -0.000002 0.587783
v 0.861804 0.276394 0.425323
v 0.309017 -0.000000 -0.951056
v 0.447216 -0.276398 -0.850648
v 0.138199 -0.276398 -0.951055
v -0.809018 -0.000000 -0.587783
v -0.670819 -0.276397 -0.688191
v -0.861803 -0.276396 -0.425324
v -0.809018 0.000000 0.587783
v -0.861803 -0.276396 0.425324
v -0.670819 -0.276397 0.688191
v 0.309017 0.000000 0.951056
v 0.138199 -0.276398 0.951055
v 0.447216 -0.276398 0.850648
v 1.000000 0.000000 0.000000
v 0.947213 -0.276396 0.162458
v 0.947213 -0.276396 -0.162458
v 0.361803 -0.723612 -0.587779
v 0.138197 -0.894429 -0.425321
v 0.052789 -0.723611 -0.688186
v -0.447211 -0.723612 -0.525727
v -0.361801 -0.894429 -0.262863
v -0.638195 -0.723609 -0.262863
v -0.638195 -0.723609 0.262864
v -0.361801 -0.894428 0.262864
v -0.447211 -0.723610 0.525729
v 0.670817 -0.723611 -0.162457
v 0.670818 -0.723610 0.162458
v 0.447211 -0.894428 0.000001
v 0.052790 -0.723612 0.688185
v 0.138199 -0.894429 0.425321
v 0.361805 -0.723611 0.587779
vn -0.0000 -1.0000 -0.0000
vn 0.7236 -0.4472 0.5257
vn -0.2764 -0.4472 0.8506
vn -0.8944 -0.4472 -0.0000
vn -0.2764 -0.4472 -0.8506
vn 0.7236 -0.4472 -0.5257
vn 0.2764 0.4472 0.8506
vn -0.7236 0.4472 0.5257
vn -0.7236 0.4472 -0.5257
vn 0.2764 0.4472 -0.8506
vn 0.8944 0.4472 -0.0000
vn -0.0000 1.0000 -0.0000
vn -0.2308 -0.6650 0.7103
vn -0.1625 -0.8507 0.5000
vn -0.0806 -0.9654 0.2480
vn 0.2110 -0.9654 0.1533
vn 0.4253 -0.8507 0.3090
vn 0.6042 -0.6650 0.4390
vn 0.5237 -0.5038 0.6870
vn 0.2629 -0.5257 0.8090
vn -0.0198 -0.5038 0.8636
vn 0.8152 -0.5038 -0.2857
vn 0.8506 -0.5257 -0.0000
vn 0.8152 -0.5038 0.2857
vn 0.2110 -0.9654 -0.1533
vn 0.4253 -0.8507 -0.3090
vn 0.6042 -0.6650 -0.4390
vn -0.7469 -0.6650 -0.0000
vn -0.5257 -0.8507 -0.0000
vn -0.2608 -0.9654 -0.0000
vn -0.4915 -0.5038 0.7103
vn -0.6882 -0.5257 0.5000
vn -0.8274 -0.5038 0.2480
vn -0.2308 -0.6650 -0.7103
vn -0.1625 -0.8507 -0.5000
vn -0.0806 -0.9654 -0.2480
vn -0.8274 -0.5038 -0.2480
vn -0.6882 -0.5257 -0.5000
vn -0.4915 -0.5038 -0.7103
vn -0.0198 -0.5038 -0.8636
vn 0.2629 -0.5257 -0.8090
vn 0.5237 -0.5038 -0.6870
vn 0.9578 0.2431 0.1533
vn 0.9511 -0.0000 0.3090
vn 0.8650 -0.2431 0.4390
vn 0.8650 -0.2431 -0.4390
vn 0.9511 -0.0000 -0.3090
vn 0.9578 0.2431 -0.1533
vn 0.1502 0.2431 0.9583
vn -0.0000 -0.0000 1.0000
vn -0.1502 -0.2431 0.9583
vn 0.6848 -0.2431 0.6870
vn 0.5878 -0.0000 0.8090
vn 0.4417 0.2431 0.8636
vn -0.8650 0.2431 0.4390
vn -0.9511 -0.0000 0.3090
vn -0.9578 -0.2431 0.1533
vn -0.4417 -0.2431 0.8636
vn -0.5878 -0.0000 0.8090
vn -0.6848 0.2431 0.6870
vn -0.6848 0.2431 -0.6870
vn -0.5878 -0.0000 -0.8090
vn -0.4417 -0.2431 -0.8636
vn -0.9578 -0.2431 -0.1533
vn -0.9511 -0.0000 -0.3090
vn -0.8650 0.2431 -0.4390
vn 0.4417 0.2431 -0.8636
vn 0.5878 -0.0000 -0.8090
vn 0.6848 -0.2431 -0.6870
vn -0.1502 -0.2431 -0.9583
vn -0.0000 -0.0000 -1.0000
vn 0.1502 0.2431 -0.9583
vn 0.8274 0.5038 0.2480
vn 0.6882 0.5257 0.5000
vn 0.4915 0.5038 0.7103
vn 0.0198 0.5038 0.8636
vn -0.2629 0.5257 0.8090
vn -0.5237 0.5038 0.6870
vn -0.8152 0.5038 0.2857
vn -0.8506 0.5257 -0.0000
vn -0.8152 0.5038 -0.2857
vn -0.5237 0.5038 -0.6870
vn -0.2629 0.5257 -0.8090
vn 0.0198 0.5038 -0.8636
vn 0.4915 0.5038 -0.7103
vn 0.6882 0.5257 -0.5000
vn 0.8274 0.5038 -0.2480
vn 0.0806 0.9654 0.2480
vn 0.1625 0.8507 0.5000
vn 0.2308 0.6650 0.7103
vn 0.7469 0.6650 -0.0000
vn 0.5257 0.8507 -0.0000
vn 0.2607 0.9654 -0.0000
vn -0.2110 0.9654 0.1533
vn -0.4253 0.8507 0.3090
vn -0.6042 0.6650 0.4390
vn -0.2110 0.9654 -0.1533
vn -0.4253 0.8507 -0.3090
vn -0.6042 0.6650 -0.4390
vn 0.0806 0.9654 -0.2480
vn 0.1625 0.8507 -0.5000
vn 0.2308 0.6650 -0.7103
vn 0.3682 0.8904 -0.2675
vn 0.6317 0.7275 -0.2675
vn 0.4496 0.7276 -0.5182
vn -0.1406 0.8904 -0.4329
vn -0.0592 0.7276 -0.6835
vn -0.3539 0.7276 -0.5878
vn -0.4551 0.8904 -0.0000
vn -0.6683 0.7276 -0.1549
vn -0.6683 0.7276 0.1549
vn -0.1406 0.8904 0.4329
vn -0.3539 0.7276 0.5878
vn -0.0592 0.7276 0.6835
vn 0.3682 0.8904 0.2675
vn 0.4496 0.7276 0.5182
vn 0.6317 0.7275 0.2675
vn 0.8593 0.2724 -0.4329
vn 0.8090 0.0089 -0.5878
vn 0.6772 0.2724 -0.6835
vn -0.1461 0.2724 -0.9510
vn -0.3090 0.0089 -0.9510
vn -0.4408 0.2724 -0.8553
vn -0.9496 0.2724 -0.1549
vn -1.0000 0.0089 -0.0000
vn -0.9496 0.2724 0.1549
vn -0.4408 0.2724 0.8553
vn -0.3090 0.0089 0.9510
vn -0.1461 0.2724 0.9510
vn 0.6772 0.2724 0.6835
vn 0.8090 0.0089 0.5878
vn 0.8593 0.2724 0.4329
vn 0.3090 -0.0089 -0.9510
vn 0.4408 -0.2724 -0.8553
vn 0.1461 -0.2724 -0.9510
vn -0.8090 -0.0089 -0.5878
vn -0.6772 -0.2724 -0.6835
vn -0.8593 -0.2724 -0.4329
vn -0.8090 -0.0089 0.5878
vn -0.8593 -0.2724 0.4329
vn -0.6772 -0.2724 0.6835
vn 0.3090 -0.0089 0.9510
vn 0.1461 -0.2724 0.9510
vn 0.4408 -0.2724 0.8553
vn 1.0000 -0.0089 -0.0000
vn 0.9496 -0.2724 0.1549
vn 0.9496 -0.2724 -0.1549
vn 0.3539 -0.7276 -0.5878
vn 0.1406 -0.8904 -0.4329
vn 0.0592 -0.7276 -0.6835
vn -0.4496 -0.7276 -0.5182
vn -0.3682 -0.8904 -0.2675
vn -0.6317 -0.7275 -0.2675
vn -0.6317 -0.7275 0.2675
vn -0.3682 -0.8904 0.2675
vn -0.4496 -0.7275 0.5182
vn 0.6683 -0.7275 -0.1549
vn 0.6683 -0.7275 0.1549
vn 0.4551 -0.8904 -0.0000
vn 0.0592 -0.7276 0.6835
vn 0.1406 -0.8904 0.4329
vn 0.3539 -0.7276 0.5878
vt 0.035317 0.231437
vt 0.043534 0.165107
vt 0.095504 0.228772
vt 0.428044 0.210038
vt 0.415888 0.143894
vt 0.498245 0.198148
vt 0.058763 0.290938
vt 0.860965 0.231437
vt 0.884411 0.290938
vt 0.830730 0.285909
vt 0.800020 0.217733
vt 0.461453 0.264742
vt 0.229366 0.354622
vt 0.253432 0.300708
vt 0.264706 0.376267
vt 0.098726 0.503241
vt 0.126079 0.464974
vt 0.125844 0.542850
vt 0.778920 0.490222
vt 0.812226 0.494198
vt 0.787452 0.554774
vt 0.648839 0.329879
vt 0.684274 0.358136
vt 0.647103 0.396528
vt 0.403141 0.270199
vt 0.230957 0.421277
vt 0.087431 0.566169
vt 0.750563 0.525709
vt 0.611750 0.352285
vt 0.366096 0.484984
vt 0.399402 0.481008
vt 0.378540 0.546970
vt 0.236015 0.645327
vt 0.271450 0.617071
vt 0.265572 0.694386
vt 0.840868 0.765168
vt 0.911069 0.777058
vt 0.828711 0.831312
vt 0.642190 0.620584
vt 0.666256 0.674498
vt 0.615141 0.670346
vt 0.511550 0.471966
vt 0.538903 0.510233
vt 0.501765 0.535776
vt 0.471587 0.684268
vt 0.508328 0.746434
vt 0.448141 0.743769
vt 0.488887 0.610705
vt 0.522815 0.671100
vt 0.532288 0.586856
vt 0.570919 0.719109
vt 0.571674 0.636552
vt 0.572169 0.553992
vt 0.608257 0.593345
vt 0.456358 0.810099
vt 0.569184 0.801656
vt 0.637345 0.742238
vt 0.551409 0.884042
vt 0.695570 0.811636
vt 0.707638 0.729792
vt 0.772653 0.764575
vt 0.387196 0.757473
vt 0.330487 0.821241
vt 0.990409 0.833986
vt 0.316300 0.739527
vt 0.164762 0.833986
vt 0.241994 0.766934
vt 0.085422 0.777058
vt 0.161744 0.751452
vt 0.209821 0.698910
vt 0.417906 0.689298
vt 0.364233 0.685161
vt 0.311037 0.657277
vt 0.395240 0.619349
vt 0.349836 0.602702
vt 0.307838 0.574902
vt 0.340181 0.527223
vt 0.442487 0.622184
vt 0.418426 0.548917
vt 0.462386 0.544793
vt 0.438753 0.476875
vt 0.478148 0.473696
vt 0.538668 0.432356
vt 0.573025 0.388869
vt 0.572588 0.471430
vt 0.610542 0.429942
vt 0.609379 0.515685
vt 0.645418 0.475227
vt 0.643781 0.553929
vt 0.677530 0.598939
vt 0.715583 0.565133
vt 0.712507 0.647516
vt 0.754967 0.602944
vt 0.761602 0.688032
vt 0.799179 0.630555
vt 0.815965 0.705007
vt 0.874277 0.710464
vt 0.071584 0.639585
vt 0.106425 0.703002
vt 0.048629 0.710464
vt 0.118312 0.619258
vt 0.160766 0.668897
vt 0.160201 0.586337
vt 0.198926 0.622921
vt 0.234280 0.578678
vt 0.232594 0.499979
vt 0.269151 0.539500
vt 0.266903 0.453843
vt 0.305283 0.492489
vt 0.302759 0.410073
vt 0.337739 0.449497
vt 0.374628 0.420432
vt 0.386355 0.344652
vt 0.414608 0.409309
vt 0.434826 0.331572
vt 0.459550 0.405093
vt 0.484408 0.335621
vt 0.500255 0.409038
vt 0.679727 0.521363
vt 0.681975 0.435706
vt 0.718107 0.482718
vt 0.720662 0.400304
vt 0.753005 0.447983
vt 0.847650 0.643634
vt 0.827432 0.565897
vt 0.897232 0.639585
vt 0.872373 0.570113
vt 0.046725 0.570113
vt 0.851577 0.498332
vt 0.890972 0.501510
vt 0.065325 0.501510
vt 0.197719 0.545264
vt 0.159765 0.503776
vt 0.196555 0.459521
vt 0.159345 0.421215
vt 0.195434 0.381861
vt 0.342143 0.372262
vt 0.299683 0.327690
vt 0.348778 0.287174
vt 0.294814 0.245414
vt 0.359829 0.210632
vt 0.531136 0.355948
vt 0.519249 0.272205
vt 0.573589 0.306309
vt 0.574568 0.223754
vt 0.622645 0.276296
vt 0.678396 0.280820
vt 0.729123 0.235679
vt 0.723861 0.317930
vt 0.777057 0.290046
vt 0.762660 0.372505
vt 0.808064 0.355857
vt 0.791364 0.428237
vt 0.831251 0.426289
vt 0.855311 0.353022
vt 0.875210 0.430414
vt 0.901711 0.364501
vt 0.076063 0.364501
vt 0.088941 0.439430
vt 0.049563 0.430414
vt 0.119464 0.388350
vt 0.109991 0.304107
vt 0.158850 0.338655
vt 0.158095 0.256097
vt 0.202317 0.304860
vt 0.654818 0.208272
vt 0.577585 0.141220
vt 0.743310 0.153965
vt 0.138584 0.091164
vt 0.964232 0.091164
vt 0.869182 0.165107
vt 0.224522 0.232968
vt 0.156361 0.173550
vt 0.282747 0.163571
s 1
f 1/1/1 16/2/16 15/3/15
f 2/4/2 18/5/18 24/6/24
f 1/1/1 15/3/15 30/7/30
f 1/8/1 30/9/30 36/10/36
f 1/8/1 36/10/36 25/11/25
f 2/4/2 24/6/24 45/12/45
f 3/13/3 21/14/21 51/15/51
f 4/16/4 33/17/33 57/18/57
f 5/19/5 39/20/39 63/21/63
f 6/22/6 42/23/42 69/24/69
f 2/4/2 45/12/45 52/25/52
f 3/13/3 51/15/51 58/26/58
f 4/16/4 57/18/57 64/27/64
f 5/19/5 63/21/63 70/28/70
f 6/22/6 69/24/69 46/29/46
f 7/30/7 75/31/75 90/32/90
f 8/33/8 78/34/78 96/35/96
f 9/36/9 81/37/81 99/38/99
f 10/39/10 84/40/84 102/41/102
f 11/42/11 87/43/87 91/44/91
f 93/45/93 100/46/100 12/47/12
f 92/48/92 103/49/103 93/45/93
f 91/44/91 104/50/104 92/48/92
f 93/45/93 103/49/103 100/46/100
f 103/49/103 101/51/101 100/46/100
f 92/48/92 104/50/104 103/49/103
f 104/50/104 105/52/105 103/49/103
f 103/49/103 105/52/105 101/51/101
f 105/52/105 102/41/102 101/51/101
f 91/44/91 87/43/87 104/50/104
f 87/43/87 86/53/86 104/50/104
f 104/50/104 86/53/86 105/52/105
f 86/53/86 85/54/85 105/52/105
f 105/52/105 85/54/85 102/41/102
f 85/54/85 10/39/10 102/41/102
f 100/46/100 97/55/97 12/47/12
f 101/51/101 106/56/106 100/46/100
f 102/41/102 107/57/107 101/51/101
f 100/46/100 106/56/106 97/55/97
f 106/56/106 98/58/98 97/55/97
f 101/51/101 107/57/107 106/56/106
f 107/57/107 108/59/108 106/56/106
f 106/56/106 108/59/108 98/58/98
f 108/59/108 99/38/99 98/58/98
f 102/41/102 84/40/84 107/57/107
f 84/40/84 83/60/83 107/57/107
f 107/57/107 83/60/83 108/59/108
f 83/60/83 82/61/82 108/59/108
f 108/59/108 82/61/82 99/38/99
f 82/61/82 9/36/9 99/38/99
f 97/55/97 94/62/94 12/47/12
f 98/58/98 109/63/109 97/55/97
f 99/38/99 110/64/110 98/58/98
f 97/55/97 109/63/109 94/62/94
f 109/63/109 95/65/95 94/62/94
f 98/58/98 110/66/110 109/63/109
f 110/66/110 111/67/111 109/63/109
f 109/63/109 111/67/111 95/65/95
f 111/67/111 96/35/96 95/65/95
f 99/38/99 81/37/81 110/64/110
f 81/68/81 80/69/80 110/66/110
f 110/66/110 80/69/80 111/67/111
f 80/69/80 79/70/79 111/67/111
f 111/67/111 79/70/79 96/35/96
f 79/70/79 8/33/8 96/35/96
f 94/62/94 88/71/88 12/47/12
f 95/65/95 112/72/112 94/62/94
f 96/35/96 113/73/113 95/65/95
f 94/62/94 112/72/112 88/71/88
f 112/72/112 89/74/89 88/71/88
f 95/65/95 113/73/113 112/72/112
f 113/73/113 114/75/114 112/72/112
f 112/72/112 114/75/114 89/74/89
f 114/75/114 90/32/90 89/74/89
f 96/35/96 78/34/78 113/73/113
f 78/34/78 77/76/77 113/73/113
f 113/73/113 77/76/77 114/75/114
f 77/76/77 76/77/76 114/75/114
f 114/75/114 76/77/76 90/32/90
f 76/77/76 7/30/7 90/32/90
f 88/71/88 93/45/93 12/47/12
f 89/74/89 115/78/115 88/71/88
f 90/32/90 116/79/116 89/74/89
f 88/71/88 115/78/115 93/45/93
f 115/78/115 92/48/92 93/45/93
f 89/74/89 116/79/116 115/78/115
f 116/79/116 117/80/117 115/78/115
f 115/78/115 117/80/117 92/48/92
f 117/80/117 91/44/91 92/48/92
f 90/32/90 75/31/75 116/79/116
f 75/31/75 74/81/74 116/79/116
f 116/79/116 74/81/74 117/80/117
f 74/81/74 73/82/73 117/80/117
f 117/80/117 73/82/73 91/44/91
f 73/82/73 11/42/11 91/44/91
f 48/83/48 87/43/87 11/42/11
f 47/84/47 118/85/118 48/83/48
f 46/29/46 119/86/119 47/84/47
f 48/83/48 118/85/118 87/43/87
f 118/85/118 86/53/86 87/43/87
f 47/84/47 119/86/119 118/85/118
f 119/86/119 120/87/120 118/85/118
f 118/85/118 120/87/120 86/53/86
f 120/87/120 85/54/85 86/53/86
f 46/29/46 69/24/69 119/86/119
f 69/24/69 68/88/68 119/86/119
f 119/86/119 68/88/68 120/87/120
f 68/88/68 67/89/67 120/87/120
f 120/87/120 67/89/67 85/54/85
f 67/89/67 10/39/10 85/54/85
f 72/90/72 84/40/84 10/39/10
f 71/91/71 121/92/121 72/90/72
f 70/28/70 122/93/122 71/91/71
f 72/90/72 121/92/121 84/40/84
f 121/92/121 83/60/83 84/40/84
f 71/91/71 122/93/122 121/92/121
f 122/93/122 123/94/123 121/92/121
f 121/92/121 123/94/123 83/60/83
f 123/94/123 82/61/82 83/60/83
f 70/28/70 63/21/63 122/93/122
f 63/21/63 62/95/62 122/93/122
f 122/93/122 62/95/62 123/94/123
f 62/95/62 61/96/61 123/94/123
f 123/94/123 61/96/61 82/61/82
f 61/96/61 9/36/9 82/61/82
f 66/97/66 81/37/81 9/36/9
f 65/98/65 124/99/124 66/100/66
f 64/27/64 125/101/125 65/98/65
f 66/100/66 124/99/124 81/68/81
f 124/99/124 80/69/80 81/68/81
f 65/98/65 125/101/125 124/99/124
f 125/101/125 126/102/126 124/99/124
f 124/99/124 126/102/126 80/69/80
f 126/102/126 79/70/79 80/69/80
f 64/27/64 57/18/57 125/101/125
f 57/18/57 56/103/56 125/101/125
f 125/101/125 56/103/56 126/102/126
f 56/103/56 55/104/55 126/102/126
f 126/102/126 55/104/55 79/70/79
f 55/104/55 8/33/8 79/70/79
f 60/105/60 78/34/78 8/33/8
f 59/106/59 127/107/127 60/105/60
f 58/26/58 128/108/128 59/106/59
f 60/105/60 127/107/127 78/34/78
f 127/107/127 77/76/77 78/34/78
f 59/106/59 128/108/128 127/107/127
f 128/108/128 129/109/129 127/107/127
f 127/107/127 129/109/129 77/76/77
f 129/109/129 76/77/76 77/76/77
f 58/26/58 51/15/51 128/108/128
f 51/15/51 50/110/50 128/108/128
f 128/108/128 50/110/50 129/109/129
f 50/110/50 49/111/49 129/109/129
f 129/109/129 49/111/49 76/77/76
f 49/111/49 7/30/7 76/77/76
f 54/112/54 75/31/75 7/30/7
f 53/113/53 130/114/130 54/112/54
f 52/25/52 131/115/131 53/113/53
f 54/112/54 130/114/130 75/31/75
f 130/114/130 74/81/74 75/31/75
f 53/113/53 131/115/131 130/114/130
f 131/115/131 132/116/132 130/114/130
f 130/114/130 132/116/132 74/81/74
f 132/116/132 73/82/73 74/81/74
f 52/25/52 45/12/45 131/115/131
f 45/12/45 44/117/44 131/115/131
f 131/115/131 44/117/44 132/116/132
f 44/117/44 43/118/43 132/116/132
f 132/116/132 43/118/43 73/82/73
f 43/118/43 11/42/11 73/82/73
f 67/89/67 72/90/72 10/39/10
f 68/88/68 133/119/133 67/89/67
f 69/24/69 134/120/134 68/88/68
f 67/89/67 133/119/133 72/90/72
f 133/119/133 71/91/71 72/90/72
f 68/88/68 134/120/134 133/119/133
f 134/120/134 135/121/135 133/119/133
f 133/119/133 135/121/135 71/91/71
f 135/121/135 70/28/70 71/91/71
f 69/24/69 42/23/42 134/120/134
f 42/23/42 41/122/41 134/120/134
f 134/120/134 41/122/41 135/121/135
f 41/122/41 40/123/40 135/121/135
f 135/121/135 40/123/40 70/28/70
f 40/123/40 5/19/5 70/28/70
f 61/96/61 66/97/66 9/36/9
f 62/95/62 136/124/136 61/96/61
f 63/21/63 137/125/137 62/95/62
f 61/96/61 136/124/136 66/97/66
f 136/124/136 65/126/65 66/97/66
f 62/95/62 137/125/137 136/124/136
f 137/125/137 138/127/138 136/124/136
f 136/124/136 138/127/138 65/126/65
f 138/128/138 64/27/64 65/98/65
f 63/21/63 39/20/39 137/125/137
f 39/20/39 38/129/38 137/125/137
f 137/125/137 38/129/38 138/127/138
f 38/129/38 37/130/37 138/127/138
f 138/128/138 37/131/37 64/27/64
f 37/131/37 4/16/4 64/27/64
f 55/104/55 60/105/60 8/33/8
f 56/103/56 139/132/139 55/104/55
f 57/18/57 140/133/140 56/103/56
f 55/104/55 139/132/139 60/105/60
f 139/132/139 59/106/59 60/105/60
f 56/103/56 140/133/140 139/132/139
f 140/133/140 141/134/141 139/132/139
f 139/132/139 141/134/141 59/106/59
f 141/134/141 58/26/58 59/106/59
f 57/18/57 33/17/33 140/133/140
f 33/17/33 32/135/32 140/133/140
f 140/133/140 32/135/32 141/134/141
f 32/135/32 31/136/31 141/134/141
f 141/134/141 31/136/31 58/26/58
f 31/136/31 3/13/3 58/26/58
f 49/111/49 54/112/54 7/30/7
f 50/110/50 142/137/142 49/111/49
f 51/15/51 143/138/143 50/110/50
f 49/111/49 142/137/142 54/112/54
f 142/137/142 53/113/53 54/112/54
f 50/110/50 143/138/143 142/137/142
f 143/138/143 144/139/144 142/137/142
f 142/137/142 144/139/144 53/113/53
f 144/139/144 52/25/52 53/113/53
f 51/15/51 21/14/21 143/138/143
f 21/14/21 20/140/20 143/138/143
f 143/138/143 20/140/20 144/139/144
f 20/140/20 19/141/19 144/139/144
f 144/139/144 19/141/19 52/25/52
f 19/141/19 2/4/2 52/25/52
f 43/118/43 48/83/48 11/42/11
f 44/117/44 145/142/145 43/118/43
f 45/12/45 146/143/146 44/117/44
f 43/118/43 145/142/145 48/83/48
f 145/142/145 47/84/47 48/83/48
f 44/117/44 146/143/146 145/142/145
f 146/143/146 147/144/147 145/142/145
f 145/142/145 147/144/147 47/84/47
f 147/144/147 46/29/46 47/84/47
f 45/12/45 24/6/24 146/143/146
f 24/6/24 23/145/23 146/143/146
f 146/143/146 23/145/23 147/144/147
f 23/145/23 22/146/22 147/144/147
f 147/144/147 22/146/22 46/29/46
f 22/146/22 6/22/6 46/29/46
f 27/147/27 42/23/42 6/22/6
f 26/148/26 148/149/148 27/147/27
f 25/11/25 149/150/149 26/148/26
f 27/147/27 148/149/148 42/23/42
f 148/149/148 41/122/41 42/23/42
f 26/148/26 149/150/149 148/149/148
f 149/150/149 150/151/150 148/149/148
f 148/149/148 150/151/150 41/122/41
f 150/151/150 40/123/40 41/122/41
f 25/11/25 36/10/36 149/150/149
f 36/10/36 35/152/35 149/150/149
f 149/150/149 35/152/35 150/151/150
f 35/152/35 34/153/34 150/151/150
f 150/151/150 34/153/34 40/123/40
f 34/153/34 5/19/5 40/123/40
f 34/153/34 39/20/39 5/19/5
f 35/152/35 151/154/151 34/153/34
f 36/10/36 152/155/152 35/152/35
f 34/153/34 151/154/151 39/20/39
f 151/154/151 38/129/38 39/20/39
f 35/152/35 152/155/152 151/154/151
f 152/155/152 153/156/153 151/154/151
f 151/154/151 153/156/153 38/129/38
f 153/156/153 37/130/37 38/129/38
f 36/10/36 30/9/30 152/155/152
f 30/9/30 29/157/29 152/155/152
f 152/155/152 29/157/29 153/156/153
f 29/158/29 28/159/28 153/160/153
f 153/160/153 28/159/28 37/131/37
f 28/159/28 4/16/4 37/131/37
f 28/159/28 33/17/33 4/16/4
f 29/158/29 154/161/154 28/159/28
f 30/7/30 155/162/155 29/158/29
f 28/159/28 154/161/154 33/17/33
f 154/161/154 32/135/32 33/17/33
f 29/158/29 155/162/155 154/161/154
f 155/162/155 156/163/156 154/161/154
f 154/161/154 156/163/156 32/135/32
f 156/163/156 31/136/31 32/135/32
f 30/7/30 15/3/15 155/162/155
f 15/3/15 14/164/14 155/162/155
f 155/162/155 14/164/14 156/163/156
f 14/164/14 13/165/13 156/163/156
f 156/163/156 13/165/13 31/136/31
f 13/165/13 3/13/3 31/136/31
f 22/146/22 27/147/27 6/22/6
f 23/145/23 157/166/157 22/146/22
f 24/6/24 158/167/158 23/145/23
f 22/146/22 157/166/157 27/147/27
f 157/166/157 26/148/26 27/147/27
f 23/145/23 158/167/158 157/166/157
f 158/167/158 159/168/159 157/166/157
f 157/166/157 159/168/159 26/148/26
f 159/168/159 25/11/25 26/148/26
f 24/6/24 18/5/18 158/167/158
f 18/5/18 17/169/17 158/167/158
f 158/167/158 17/170/17 159/168/159
f 17/170/17 16/171/16 159/168/159
f 159/168/159 16/171/16 25/11/25
f 16/171/16 1/8/1 25/11/25
f 13/165/13 21/14/21 3/13/3
f 14/164/14 160/172/160 13/165/13
f 15/3/15 161/173/161 14/164/14
f 13/165/13 160/172/160 21/14/21
f 160/172/160 20/140/20 21/14/21
f 14/164/14 161/173/161 160/172/160
f 161/173/161 162/174/162 160/172/160
f 160/172/160 162/174/162 20/140/20
f 162/174/162 19/141/19 20/140/20
f 15/3/15 16/2/16 161/173/161
f 16/2/16 17/169/17 161/173/161
f 161/173/161 17/169/17 162/174/162
f 17/169/17 18/5/18 162/174/162
f 162/174/162 18/5/18 19/141/19
f 18/5/18 2/4/2 19/141/19
