# Blender 4.4.1
# www.blender.org
o Plane
v -8.000000 0.000000 8.000000
v 8.000000 0.000000 8.000000
v -8.000000 0.000000 -8.000000
v 8.000000 0.000000 -8.000000
v -8.000000 8.000000 8.000000
v 8.000000 8.000000 8.000000
v -8.000000 0.000000 8.000000
v 8.000000 0.000000 8.000000
v -8.000000 8.000000 -8.000000
v 8.000000 8.000000 -8.000000
v -8.000000 0.000000 -8.000000
v 8.000000 0.000000 -8.000000
v -8.000000 8.000000 8.000000
v 8.000000 8.000000 8.000000
v -8.000000 8.000000 -8.000000
v 8.000000 8.000000 -8.000000
v -8.000000 8.000000 8.000000
v -7.999999 8.000000 -8.000000
v -8.000001 0.000000 8.000000
v -8.000000 0.000000 -8.000000
v 8.000000 8.000000 8.000000
v 8.000001 8.000000 -8.000000
v 7.999999 0.000000 8.000000
v 8.000000 0.000000 -8.000000
v 8.000000 4.909369 -1.900000
v 8.000000 4.909369 1.900000
v 8.000000 0.000000 1.900000
v 8.000000 0.000000 -1.900000
vn -0.0000 1.0000 -0.0000
vn -0.0000 -0.0000 -1.0000
vn -0.0000 -0.0000 1.0000
vn -0.0000 -1.0000 -0.0000
vn 1.0000 -0.0000 -0.0000
vn -1.0000 -0.0000 -0.0000
vt 1.000000 0.000000
vt 0.000000 1.000000
vt 0.000000 0.000000
vt 0.381250 0.386329
vt 1.000000 1.000000
vt 0.381250 1.000000
vt 0.618750 1.000000
vt 0.618750 0.386329
s 0
f 2/1/1 3/2/1 1/3/1
f 6/1/2 7/2/2 5/3/2
f 11/2/3 10/1/3 9/3/3
f 15/2/4 14/1/4 13/3/4
f 19/2/5 18/1/5 17/3/5
f 21/3/6 22/1/6 26/4/6
f 2/1/1 4/5/1 3/2/1
f 6/1/2 8/5/2 7/2/2
f 11/2/3 12/5/3 10/1/3
f 15/2/4 16/5/4 14/1/4
f 19/2/5 20/5/5 18/1/5
f 26/4/6 27/6/6 23/2/6
f 22/1/6 24/5/6 28/7/6
f 22/1/6 28/7/6 25/8/6
f 26/4/6 23/2/6 21/3/6
f 22/1/6 25/8/6 26/4/6
