v -0.5 0.5 0.5
v 0.5 0.5 0.5
v 0.5 0.5 -0.5
v -0.5 0.5 -0.5
v -0.5 -0.5 0.5
v 0.5 -0.5 0.5
v 0.5 -0.5 -0.5
v -0.5 -0.5 -0.5
v -0.5 0.5 0.5
v 0.5 0.5 0.5
v 0.5 0.5 -0.5
v -0.5 0.5 -0.5
v -0.5 -0.5 0.5
v 0.5 -0.5 0.5
v 0.5 -0.5 -0.5
v -0.5 -0.5 -0.5
v -0.5 0.5 0.5
v 0.5 0.5 0.5
v 0.5 0.5 -0.5
v -0.5 0.5 -0.5
v -0.5 -0.5 0.5
v 0.5 -0.5 0.5
v 0.5 -0.5 -0.5
v -0.5 -0.5 -0.5
vn 0.0 1.0 0.0
vn 0.0 1.0 0.0
vn 0.0 1.0 0.0
vn 0.0 1.0 0.0
vn 0.0 -1.0 0.0
vn 0.0 -1.0 0.0
vn 0.0 -1.0 0.0
vn 0.0 -1.0 0.0
vn -1.0 0.0 0.0
vn 1.0 0.0 0.0
vn 1.0 0.0 0.0
vn -1.0 0.0 0.0
vn -1.0 0.0 0.0
vn 1.0 0.0 0.0
vn 1.0 0.0 0.0
vn -1.0 0.0 0.0
vn 0.0 0.0 1.0
vn 0.0 0.0 1.0
vn 0.0 0.0 -1.0
vn 0.0 0.0 -1.0
vn 0.0 0.0 1.0
vn 0.0 0.0 1.0
vn 0.0 0.0 -1.0
vn 0.0 0.0 -1.0
f 1//1 2//2 3//3
f 1//1 3//3 4//4
f 6//6 5//5 7//7
f 5//5 8//8 7//7
f 9//9 12//12 13//13
f 12//12 16//16 13//13
f 11//11 10//10 15//15
f 10//10 14//14 15//15
f 18//18 17//17 21//21
f 18//18 21//21 22//22
f 20//20 19//19 24//24
f 19//19 23//23 24//24