OFF
24 12 0
-0.5 0.5 0.5 0.0 1.0 0.0
0.5 0.5 0.5 0.0 1.0 0.0
0.5 0.5 -0.5 0.0 1.0 0.0
-0.5 0.5 -0.5 0.0 1.0 0.0
-0.5 -0.5 0.5 0.0 -1.0 0.0
0.5 -0.5 0.5 0.0 -1.0 0.0
0.5 -0.5 -0.5 0.0 -1.0 0.0
-0.5 -0.5 -0.5 0.0 -1.0 0.0
-0.5 0.5 0.5 -1.0 0.0 0.0
0.5 0.5 0.5 1.0 0.0 0.0
0.5 0.5 -0.5 1.0 0.0 0.0
-0.5 0.5 -0.5 -1.0 0.0 0.0
-0.5 -0.5 0.5 -1.0 0.0 0.0
0.5 -0.5 0.5 1.0 0.0 0.0
0.5 -0.5 -0.5 1.0 0.0 0.0
-0.5 -0.5 -0.5 -1.0 0.0 0.0
-0.5 0.5 0.5 0.0 0.0 1.0
0.5 0.5 0.5 0.0 0.0 1.0
0.5 0.5 -0.5 0.0 0.0 -1.0
-0.5 0.5 -0.5 0.0 0.0 -1.0
-0.5 -0.5 0.5 0.0 0.0 1.0
0.5 -0.5 0.5 0.0 0.0 1.0
0.5 -0.5 -0.5 0.0 0.0 -1.0
-0.5 -0.5 -0.5 0.0 0.0 -1.0
3 0 1 2
3 0 2 3
3 5 4 6
3 4 7 6
3 0 3 4
3 3 7 4
3 2 1 6
3 1 5 6
3 1 0 4
3 1 4 5
3 3 2 7
3 2 6 7